<mxfile host="app.diagrams.net" modified="2020-08-07T06:47:01.813Z" agent="5.0 (Windows NT 10.0; WOW64) AppleWebKit/537.36 (KHTML, like Gecko) Chrome/70.0.3538.25 Safari/537.36 Core/1.70.3775.400 QQBrowser/10.6.4208.400" etag="gX_OYoghj-QJaQ2Zmkct" version="13.6.0" type="github">
  <diagram id="jJHw5jyAht79z7s5MV_T" name="Page-1">
    <mxGraphModel dx="1422" dy="769" grid="1" gridSize="10" guides="1" tooltips="1" connect="1" arrows="1" fold="1" page="1" pageScale="1" pageWidth="827" pageHeight="1169" math="0" shadow="0">
      <root>
        <mxCell id="0" />
        <mxCell id="1" parent="0" />
        <mxCell id="K8nx_5MiqsYPIXwrr-ue-5" value="" style="rounded=0;whiteSpace=wrap;html=1;shadow=0;glass=0;fillColor=#03FFF7;gradientColor=none;" parent="1" vertex="1">
          <mxGeometry x="90" y="130" width="330" height="460" as="geometry" />
        </mxCell>
        <mxCell id="K8nx_5MiqsYPIXwrr-ue-4" value="" style="rounded=1;whiteSpace=wrap;html=1;fillColor=#FF8000;" parent="1" vertex="1">
          <mxGeometry x="100" y="140" width="310" height="100" as="geometry" />
        </mxCell>
        <mxCell id="K8nx_5MiqsYPIXwrr-ue-6" value="SHM_MANAGER" style="rounded=0;whiteSpace=wrap;html=1;shadow=0;glass=0;fillColor=#FF8000;gradientColor=none;fontSize=15;strokeColor=none;fontStyle=1" parent="1" vertex="1">
          <mxGeometry x="155" y="150" width="200" height="30" as="geometry" />
        </mxCell>
        <mxCell id="K8nx_5MiqsYPIXwrr-ue-7" value="SHM_POOL *pool_address" style="rounded=0;whiteSpace=wrap;html=1;shadow=0;glass=0;fillColor=#FF8000;gradientColor=none;fontSize=13;strokeColor=none;" parent="1" vertex="1">
          <mxGeometry x="165" y="200" width="180" height="30" as="geometry" />
        </mxCell>
        <mxCell id="K8nx_5MiqsYPIXwrr-ue-38" style="edgeStyle=orthogonalEdgeStyle;rounded=0;orthogonalLoop=1;jettySize=auto;html=1;exitX=1;exitY=0.5;exitDx=0;exitDy=0;fontSize=15;strokeWidth=5;" parent="1" edge="1">
          <mxGeometry relative="1" as="geometry">
            <mxPoint x="410" y="287" as="sourcePoint" />
            <mxPoint x="500" y="285" as="targetPoint" />
            <Array as="points">
              <mxPoint x="410" y="285" />
            </Array>
          </mxGeometry>
        </mxCell>
        <mxCell id="K8nx_5MiqsYPIXwrr-ue-8" value="SHM_POOL[0]" style="rounded=1;whiteSpace=wrap;html=1;shadow=0;glass=0;fillColor=#FF8000;gradientColor=none;fontSize=15;strokeColor=#FFFFFF;strokeWidth=3;" parent="1" vertex="1">
          <mxGeometry x="110" y="260" width="300" height="50" as="geometry" />
        </mxCell>
        <mxCell id="K8nx_5MiqsYPIXwrr-ue-9" value="SHM_POOL[1]" style="rounded=1;whiteSpace=wrap;html=1;shadow=0;glass=0;fillColor=#FF8000;gradientColor=none;fontSize=15;strokeColor=#FFFFFF;strokeWidth=3;" parent="1" vertex="1">
          <mxGeometry x="110" y="320" width="300" height="50" as="geometry" />
        </mxCell>
        <mxCell id="K8nx_5MiqsYPIXwrr-ue-10" value="SHM_POOL[2]" style="rounded=1;whiteSpace=wrap;html=1;shadow=0;glass=0;fillColor=#FF8000;gradientColor=none;fontSize=15;strokeColor=#FFFFFF;strokeWidth=3;" parent="1" vertex="1">
          <mxGeometry x="110" y="383" width="300" height="50" as="geometry" />
        </mxCell>
        <mxCell id="K8nx_5MiqsYPIXwrr-ue-11" value="SHM_POOL[3]" style="rounded=1;whiteSpace=wrap;html=1;shadow=0;glass=0;fillColor=#FF8000;gradientColor=none;fontSize=15;strokeColor=#FFFFFF;strokeWidth=3;" parent="1" vertex="1">
          <mxGeometry x="110" y="445" width="300" height="45" as="geometry" />
        </mxCell>
        <mxCell id="K8nx_5MiqsYPIXwrr-ue-13" value="SHM_POOL[MAX]" style="rounded=1;whiteSpace=wrap;html=1;shadow=0;glass=0;fillColor=#FF8000;gradientColor=none;fontSize=15;strokeColor=#FFFFFF;strokeWidth=3;" parent="1" vertex="1">
          <mxGeometry x="110" y="540" width="300" height="40" as="geometry" />
        </mxCell>
        <mxCell id="K8nx_5MiqsYPIXwrr-ue-14" value="" style="html=1;shadow=0;dashed=0;align=center;verticalAlign=middle;shape=mxgraph.arrows2.arrow;dy=0.6;dx=22;notch=0;rounded=1;glass=0;strokeWidth=3;gradientColor=none;fontSize=15;strokeColor=none;fillColor=#FFFFFF;" parent="1" vertex="1">
          <mxGeometry x="340" y="200" width="50" height="30" as="geometry" />
        </mxCell>
        <mxCell id="K8nx_5MiqsYPIXwrr-ue-18" value="" style="rounded=0;whiteSpace=wrap;html=1;shadow=0;glass=0;strokeColor=#FFFFFF;strokeWidth=3;fillColor=#FFFFFF;gradientColor=none;fontSize=15;" parent="1" vertex="1">
          <mxGeometry x="392" y="200" width="10" height="370" as="geometry" />
        </mxCell>
        <mxCell id="K8nx_5MiqsYPIXwrr-ue-19" value="" style="html=1;shadow=0;dashed=0;align=center;verticalAlign=middle;shape=mxgraph.arrows2.arrow;dy=0.6;dx=22;notch=0;rounded=1;glass=0;strokeWidth=3;gradientColor=none;fontSize=15;strokeColor=none;fillColor=#FFFFFF;rotation=-180;" parent="1" vertex="1">
          <mxGeometry x="340" y="270" width="50" height="30" as="geometry" />
        </mxCell>
        <mxCell id="K8nx_5MiqsYPIXwrr-ue-21" value="" style="html=1;shadow=0;dashed=0;align=center;verticalAlign=middle;shape=mxgraph.arrows2.arrow;dy=0.6;dx=22;notch=0;rounded=1;glass=0;strokeWidth=3;gradientColor=none;fontSize=15;strokeColor=none;fillColor=#FFFFFF;rotation=-180;" parent="1" vertex="1">
          <mxGeometry x="340" y="330" width="50" height="30" as="geometry" />
        </mxCell>
        <mxCell id="K8nx_5MiqsYPIXwrr-ue-22" value="" style="html=1;shadow=0;dashed=0;align=center;verticalAlign=middle;shape=mxgraph.arrows2.arrow;dy=0.6;dx=22;notch=0;rounded=1;glass=0;strokeWidth=3;gradientColor=none;fontSize=15;strokeColor=none;fillColor=#FFFFFF;rotation=-180;" parent="1" vertex="1">
          <mxGeometry x="340" y="393" width="50" height="30" as="geometry" />
        </mxCell>
        <mxCell id="K8nx_5MiqsYPIXwrr-ue-23" value="" style="html=1;shadow=0;dashed=0;align=center;verticalAlign=middle;shape=mxgraph.arrows2.arrow;dy=0.6;dx=22;notch=0;rounded=1;glass=0;strokeWidth=3;gradientColor=none;fontSize=15;strokeColor=none;fillColor=#FFFFFF;rotation=-180;" parent="1" vertex="1">
          <mxGeometry x="340" y="452.5" width="50" height="30" as="geometry" />
        </mxCell>
        <mxCell id="K8nx_5MiqsYPIXwrr-ue-24" value="" style="html=1;shadow=0;dashed=0;align=center;verticalAlign=middle;shape=mxgraph.arrows2.arrow;dy=0.6;dx=22;notch=0;rounded=1;glass=0;strokeWidth=3;gradientColor=none;fontSize=15;strokeColor=none;fillColor=#FFFFFF;rotation=-180;" parent="1" vertex="1">
          <mxGeometry x="340" y="545" width="50" height="30" as="geometry" />
        </mxCell>
        <mxCell id="K8nx_5MiqsYPIXwrr-ue-26" value="" style="rounded=1;whiteSpace=wrap;html=1;shadow=0;glass=0;strokeColor=#FFFFFF;strokeWidth=3;fillColor=#00CC00;gradientColor=none;fontSize=15;" parent="1" vertex="1">
          <mxGeometry x="500" y="122.5" width="150" height="475" as="geometry" />
        </mxCell>
        <mxCell id="K8nx_5MiqsYPIXwrr-ue-27" value="SHM_POOL" style="rounded=0;whiteSpace=wrap;html=1;shadow=0;glass=0;strokeColor=#FFFFFF;strokeWidth=3;gradientColor=none;fontSize=15;fillColor=#00CC00;dashed=1;" parent="1" vertex="1">
          <mxGeometry x="514" y="137.5" width="125" height="40" as="geometry" />
        </mxCell>
        <mxCell id="K8nx_5MiqsYPIXwrr-ue-28" value="" style="rounded=1;whiteSpace=wrap;html=1;shadow=0;glass=0;gradientColor=none;fontSize=15;strokeWidth=3;fillColor=#03FFF7;strokeColor=none;" parent="1" vertex="1">
          <mxGeometry x="519" y="191" width="121" height="49" as="geometry" />
        </mxCell>
        <mxCell id="K8nx_5MiqsYPIXwrr-ue-33" value="SHM_PAGE[0]" style="rounded=0;whiteSpace=wrap;html=1;shadow=0;glass=0;dashed=1;strokeColor=#FFFFFF;strokeWidth=3;fillColor=#03FFF7;gradientColor=none;fontSize=15;" parent="1" vertex="1">
          <mxGeometry x="533" y="200.5" width="97" height="29.5" as="geometry" />
        </mxCell>
        <mxCell id="MTjaTTZQMkfQwHSEPw2n-7" value="" style="ellipse;whiteSpace=wrap;html=1;aspect=fixed;" vertex="1" parent="1">
          <mxGeometry x="566.5" y="430" width="17" height="17" as="geometry" />
        </mxCell>
        <mxCell id="MTjaTTZQMkfQwHSEPw2n-8" value="" style="ellipse;whiteSpace=wrap;html=1;aspect=fixed;" vertex="1" parent="1">
          <mxGeometry x="566.5" y="467.5" width="17" height="17" as="geometry" />
        </mxCell>
        <mxCell id="MTjaTTZQMkfQwHSEPw2n-9" value="" style="ellipse;whiteSpace=wrap;html=1;aspect=fixed;" vertex="1" parent="1">
          <mxGeometry x="566.5" y="504" width="17" height="17" as="geometry" />
        </mxCell>
      </root>
    </mxGraphModel>
  </diagram>
</mxfile>
